<?xml version="1.0" encoding="UTF-8" standalone="no"?>
<!-- Created with Inkscape (http://www.inkscape.org/) -->
<svg xmlns:dc="http://purl.org/dc/elements/1.1/" xmlns:cc="http://creativecommons.org/ns#" xmlns:rdf="http://www.w3.org/1999/02/22-rdf-syntax-ns#" xmlns:svg="http://www.w3.org/2000/svg" xmlns="http://www.w3.org/2000/svg" xmlns:sodipodi="http://sodipodi.sourceforge.net/DTD/sodipodi-0.dtd" xmlns:inkscape="http://www.inkscape.org/namespaces/inkscape" width="181.9882mm" height="115.95629mm" viewBox="0 0 644.8401 410.86875" id="svg4238" version="1.1" inkscape:version="0.91 r13725" sodipodi:docname="cuplogo.svg">
  <defs id="defs4240"/>
  <sodipodi:namedview id="base" pagecolor="#ffffff" bordercolor="#666666" borderopacity="1.0" inkscape:pageopacity="0" inkscape:pageshadow="2" inkscape:zoom="0.35" inkscape:cx="780.27718" inkscape:cy="-214.56561" inkscape:document-units="px" inkscape:current-layer="layer1" showgrid="false" fit-margin-top="0" fit-margin-left="0" fit-margin-right="0" fit-margin-bottom="0" inkscape:window-width="1280" inkscape:window-height="699" inkscape:window-x="0" inkscape:window-y="1" inkscape:window-maximized="1"/>
  <metadata id="metadata4243">
    <rdf:RDF>
      <cc:Work rdf:about="">
        <dc:format>image/svg+xml</dc:format>
        <dc:type rdf:resource="http://purl.org/dc/dcmitype/StillImage"/>
        <dc:title/>
      </cc:Work>
    </rdf:RDF>
  </metadata>
  <g inkscape:label="Layer 1" inkscape:groupmode="layer" id="layer1" transform="translate(-37.579964,-135.49927)">
    <g id="g40" transform="matrix(1.1421528,0,0,-1.1421528,265.93398,460.73095)">
      <g id="g4184">
        <path inkscape:connector-curvature="0" id="path42" style="fill:#ff5f5f;fill-opacity:1;fill-rule:nonzero;stroke:none" d="m 0,0 c 4.445,-2.238 7.285,0.543 7.285,0.543 0,0 65.045,59.367 94.348,93.557 26.063,30.586 27.762,82.129 -16.997,101.388 -44.758,19.258 -81.584,-22.657 -81.584,-22.657 -31.935,35.123 -80.268,33.345 -102.623,9.575 -22.354,-23.77 -14.548,-64.568 2.129,-87.274 15.655,-21.314 84.465,-82.644 94.894,-93.016 0,0 0.76,-0.795 2.548,-2.116"/>
      </g>
    </g>
  </g>
</svg>
